<svg xmlns="http://www.w3.org/2000/svg" xmlns:xlink="http://www.w3.org/1999/xlink" viewBox="0 0 141.73 141.73"><defs><style>.cls-1{fill:none;}.cls-2{clip-path:url(#clip-path);}.cls-3{fill:#00273f;}.cls-4{fill:#fff;}</style><clipPath id="clip-path"><circle class="cls-1" cx="70.87" cy="70.87" r="70.87"/></clipPath></defs><g id="gojzd"><g class="cls-2"><circle class="cls-3" cx="70.87" cy="70.87" r="70.87"/><path class="cls-4" d="M86.14,8.37a19.58,19.58,0,0,1-.9,1.84,40.55,40.55,0,0,1-5.77,7.4c-2.1,2.33-4.28,4.61-6.51,6.9-4.48,4.57-9.18,9.14-14.12,13.94-3.47,3.34-7.11,7-10.57,10.79S41.53,57,38.69,60.8c6.84-9,15.07-17.31,23.37-25.42,4.14-4.07,8.31-8.1,12.28-12.21,1-1,2-2.05,3-3.09S79.22,18,80.16,17a36.08,36.08,0,0,0,5.09-6.68,35.56,35.56,0,0,1-4.71,6.54c-4.9,5.64-10.06,10.92-15.18,16.11l-.2-.2c-7.21,7.43-14.29,14.44-20.68,22a118.23,118.23,0,0,0-8.89,11.77,79.91,79.91,0,0,0-7.05,13.13c.39-.6.35-.15.39,0l-.05.13.05-.13c.05.17.14.13.67-1-.53,1.12-.62,1.16-.67,1a111.61,111.61,0,0,1,15.6-24.46c6.15-7.49,13.08-14.43,20.24-21.64-5.54,5.62-11,11.16-16.09,17A132.88,132.88,0,0,0,35,68.81c-2,3.24-3.77,6.56-5.39,10A105.08,105.08,0,0,0,25.4,89.24a97.41,97.41,0,0,0-2.86,10.89,89.1,89.1,0,0,0-1.36,11.18c-.07,1.26-.08,3.77,0,5a28.38,28.38,0,0,0,0,7.31,23.43,23.43,0,0,0,.73,3.41l.27.8.13.4.16.39.32.76.36.71a1.52,1.52,0,0,0-1.23.48,3.53,3.53,0,0,1-1.15.8c-.41.11-.91,0-1.5-.86a12.55,12.55,0,0,1-1.67-5l-1.1.23c.21,2.74.48,5.11.69,7.05,0,.49.1.94.14,1.36s.05.84.07,1.2a5.14,5.14,0,0,1-.13,1.79,1.13,1.13,0,0,1-.72.78,1.09,1.09,0,0,1-.57,0,2.56,2.56,0,0,1-.76-.38,5.67,5.67,0,0,1-.93-.76,13.72,13.72,0,0,1-1-1.19,17.45,17.45,0,0,1-1-1.64c-.34-.63-.67-1.33-1-2.11A35.49,35.49,0,0,1,9,120.46a50.55,50.55,0,0,1,.13-6,53.67,53.67,0,0,1,.77-6.06A105,105,0,0,1,17,85,100.82,100.82,0,0,1,35.7,56.32C41,50.62,46.84,45.07,52.84,39.8s12.1-10.34,17.8-15.34c2.07-1.82,4.83-4.41,7.3-6.8,1.23-1.2,2.41-2.34,3.36-3.32S83,12.52,83.41,12c.62-.76.92-1.18,1.06-1.36s.12-.12,0,0a36.88,36.88,0,0,1-4.37,5.14l-2.4,2.39-2.42,2.36c-3.26,3.11-6.58,6.13-9.91,9.11C57.22,36.91,48.85,44.06,41.06,52c7.69-7.69,16-14.92,24.36-22.35,3.33-3,6.64-5.95,9.86-9l2.41-2.33,2.36-2.36a37.84,37.84,0,0,0,4.34-5c-.16.28-.31.56,0,.13,0,0,.39-.57.83-1.31a19.33,19.33,0,0,0,1.12-2.32,14.65,14.65,0,0,0,.83-2.81c0-.34.09-.6.13-.85,0,.21-.06.43-.09.68s-.08.47-.13.76-.12.6-.21.93A17.11,17.11,0,0,1,86.14,8.37Z"/><path class="cls-4" d="M107.29,67a2.88,2.88,0,0,0-3.38,2,.24.24,0,0,0,.23.3c1.59-.16,3.52.28,5-.2A1.85,1.85,0,0,0,107.29,67Zm-2.83,1.8A1.59,1.59,0,0,1,105,68c1-.81,3.48-.89,3.62.78Z"/><path class="cls-4" d="M96.39,61.71c1.61-4.43-2.69-4.4-2.3-.23C93.46,62.12,96.31,62,96.39,61.71Zm-.43-.3h-1.4a4.33,4.33,0,0,1,.1-1.39c.08-.64.77-1.59,1.45-1C96.54,59.72,96,60.64,96,61.41Z"/><path class="cls-4" d="M132.7,91.41a13.65,13.65,0,0,0-3.29-3.32c-.41-.32-.83-.63-1.26-.92a.7.7,0,0,1-.21-.21c-.31-.38-.53-.87-.82-1.28-1.05-1.49-2.3-2.83-3.3-4.35-.5-.76-.84-1.65-1.39-2.37a11.36,11.36,0,0,0-1.67-1.58c-.7-.6-1.32-1.29-2-1.88-.87-.74-1.88-1.29-2.76-2a29.64,29.64,0,0,1-.43-7.16c.32,0,1.37.42,1.07-.24-1.78-1.62-2.81-3.92-4-5.85-4,.17-8.2-.34-12.21.37-.37-1.45.29-3,.42-4.43.42.06,2.86-.82,2.17-1.37-2.14-.91-1.61-3.71-3.56-4.81.29-.84-.47-1.53-1-2.1-.87-.37-1.39-4-2-3.14a.32.32,0,0,0-.06.19c0,2.73-3,4-2.36,5.61-1.73.87-1.39,2.79-2.33,4.16-.16.44-2.17,1.26-1.18,1.53.72.07,1.46,0,2.19.05q.12,8.75-.32,17.48a7.43,7.43,0,0,0-3.69,2.87A9.55,9.55,0,0,1,86,79.53a39.76,39.76,0,0,1-6.62,3c-1.79.76-3.89,1.72-4.75,3.58-.53,1.12-.46,2.44-.81,3.62A13.72,13.72,0,0,1,72,93.59a16.52,16.52,0,0,1-2.36,2.72c-.33.31-.76.6-1.07,1l-.6,0c-.05-1.33-.1-2.67-.14-4-.12-3.31-.24-7-.35-10.36l.66-.66a1.58,1.58,0,0,0,.44-.55,2.66,2.66,0,0,0,.08-.8c0-.37,0-.74,0-1.1,0-1.45,0-2.91,0-4.36v0a.49.49,0,0,0,0-.12c-.36-1.4-.77-2.79-1.17-4.18a.34.34,0,0,0-.65,0c-.34,1.39-.79,2.75-1.15,4.14h0a.43.43,0,0,0,0,.12c0,1,0,2,0,3l-.15-.28A23.71,23.71,0,0,1,65.38,75a4.88,4.88,0,0,0-.11-1.37,13,13,0,0,0-.49-1.45.34.34,0,0,0-.62-.08c-.08.16-.16.32-.25.48q-1.8-8.34-3.13-16.79l0-.09c0-.37-.58-.51-.65-.11Q58.39,64.77,57.05,74a13.76,13.76,0,0,1-.45-2.3s0,0,0,0v0a.34.34,0,0,0-.32-.27h0a.28.28,0,0,0-.26.18l0,0h0A21.61,21.61,0,0,1,55.29,74a4.45,4.45,0,0,1-.19.51c-.22-1.37-.83-2.62-1.14-4a.33.33,0,0,0-.64,0c-.35,1.39-.8,2.75-1.15,4.14,0,0,0,0,0,0a.27.27,0,0,0,0,.12c0,1.42,0,2.85,0,4.27,0,.34,0,.68,0,1a4.6,4.6,0,0,0,0,.91,1.52,1.52,0,0,0,.39.63l.42.48v.08c.06,6.2.17,12.29.35,18.39l-6.27.26c-5,.21-12.22.48-17.2.69-.43,0-.43.69,0,.67,7.41-.3,15.18-.76,23.48-1.13l.67,0,.25,0c.24,1,.47,2.17.7,3.32l.15.78.12.62.15.77c.42,2.26.81,4.43,1.06,5.93l-2,.08-.68,0c-7.52.27-8.1.25-15.62.48-2.07.06-6.34.15-8.41.23-.42,0-.43.69,0,.68,8.55-.36,12.37-.37,20.92-.62l3.14-.1.68,0,2-.08c.23,5.44.33,7.38.57,13,0,.62,0,1.25.08,1.87,0,.1,0,.2,0,.3l-.82,0c-7,.28-14,.48-21,.72-1.9.07-3.8.13-5.69.21-.44,0-.34.66.1.64,7.39-.3,14.68-.46,22.07-.73,1.9-.06,3.8-.13,5.69-.21h0a24.41,24.41,0,0,0,2.5,1.06.47.47,0,0,0,.16,0h.06q4.44,0,8.87-.18h0a.29.29,0,0,0,.13,0h0c7.39-.31,14.79-.51,22.18-.76l5.69-.22a.33.33,0,0,0,.33-.33q-.36-8.72-.74-17.44c0-.82-.06-1.64-.1-2.47l3.29-.12c.23,0,.45-.29.29-.51l-5.75-7.66-2.77-3.69a2.27,2.27,0,0,0-.18-.25.45.45,0,0,0-.42-.16c-.58,0-1.19.05-1.77.07l-6.64.28-13.32.55.42-.37a18.71,18.71,0,0,0,2-2.17,15.33,15.33,0,0,0,2-3.24,14.57,14.57,0,0,0,1-4c.29-2.13,2.33-3.28,4.1-4.09,2.15-1,4.43-1.64,6.5-2.78a8.76,8.76,0,0,0,2.72-2.18c.61-.77,1.06-1.65,1.71-2.38a6.56,6.56,0,0,1,2.73-1.71l.29-.09a47.74,47.74,0,0,1,5.27-.25c5.84.08,11.72-.06,17.57.06.68.55,1.43,1,2.14,1.53s1.28,1.2,1.95,1.78,1.27,1,1.84,1.62A10.75,10.75,0,0,1,123,81c1,1.58,2.2,2.94,3.3,4.42.26.34.51.69.74,1a5.46,5.46,0,0,0,.65,1c.22.19.5.34.74.51a14.24,14.24,0,0,1,3.82,3.68C132.42,92,132.88,91.71,132.7,91.41ZM59.43,107.72q4.07-.06,8.13-.33l.09,0c.17,4,.35,7.95.55,11.87.17,3.35.37,6.69.58,10q-4.17.18-8.35.17Q59.83,118.59,59.43,107.72Zm-1.5-28.5c0-.87,0-1.75,0-2.62a.3.3,0,0,0,0-.23c0-.18,0-.37,0-.56.56,0,1.11,0,1.67,0V78a.17.17,0,0,0,0,.1c0,.42,0,.85,0,1.27,0,.64,0,1.28-.06,1.92,0,.28-.22.41-.42.6l-.44.45-.42-.48a2.61,2.61,0,0,1-.27-.31,1,1,0,0,1,0-.42C57.94,80.49,57.94,79.85,57.93,79.22Zm.85-6.75c.25.88.5,1.76.73,2.64-.49,0-1,0-1.48,0C58.26,74.24,58.53,73.36,58.78,72.47Zm.11,10.58.8-.79a1.6,1.6,0,0,0,.45-.55,2.65,2.65,0,0,0,.07-.8c0-.37,0-.74,0-1.1,0-.58,0-1.15,0-1.73.71-1.58,1.43-3.17,2.21-4.72.37,1,.82,1.91,1.26,2.82.59,1.23,1.26,2.43,1.93,3.62h0v.87a4.59,4.59,0,0,0,0,.91,1.43,1.43,0,0,0,.39.63l.68.77c.26,7.39.51,14.94.8,22.45-2.73.14-5.47.35-8.21.31q-.21-6.09-.34-12.17c-.07-3.35-.12-7.13-.16-10.51Zm.49,23.37c2.74,0,5.48-.17,8.21-.31h0l0,.62h-.07q-4.07.27-8.15.32ZM68,79.36c0,.64,0,1.28-.07,1.92,0,.28-.21.41-.41.6l-.44.45-.42-.48a1.93,1.93,0,0,1-.27-.31,1,1,0,0,1,0-.42c0-.63,0-1.27,0-1.9,0-1.14,0-2.27,0-3.41.56,0,1.11,0,1.67,0C68,77,68,78.17,68,79.36Zm-.08-4.25c-.49,0-1,0-1.49,0,.24-.9.51-1.78.76-2.67C67.44,73.35,67.69,74.23,67.92,75.11ZM64.38,76c-.25-.51-.47-1-.71-1.56.26-.44.5-.88.73-1.32.07.2.14.4.2.61a4.68,4.68,0,0,1,.11,1.4c0,.51,0,1,0,1.54C64.61,76.41,64.49,76.19,64.38,76Zm-4-18.34c.87,5.31,1.86,10.59,3,15.85l-.09.16a12.38,12.38,0,0,1-.46-1.2.35.35,0,0,0-.63-.05l0,0c-.69,1.32-1.32,2.67-1.93,4,0-.33,0-.67,0-1v0a.49.49,0,0,0,0-.12c-.36-1.4-.77-2.79-1.17-4.18a.33.33,0,0,0-.64,0c-.19.75-.41,1.49-.62,2.23Q59,65.47,60.41,57.62Zm-6,16.95q-.76,0-1.53,0c.23-.9.5-1.79.75-2.68A16.72,16.72,0,0,1,54.43,74.57Zm-1.62,6c0-.63,0-1.27,0-1.9,0-1.14,0-2.27,0-3.41.56,0,1.12,0,1.67,0,0,1.2,0,2.39,0,3.58q0,1-.06,1.92c0,.28-.22.41-.42.6l-.44.45-.42-.48a2.61,2.61,0,0,1-.27-.31A1,1,0,0,1,52.81,80.58Zm2,20.37a.57.57,0,0,0-.13-.27c-.15-.15-.26-.13-.46-.14H54q-.12-4.14-.2-8.3c-.07-3.34-.11-6.34-.14-9.65h0a.26.26,0,0,0,.11-.07l.8-.79a1.6,1.6,0,0,0,.45-.55,2.66,2.66,0,0,0,.08-.8l0-1.1c0-1,0-2.09,0-3.13,0,0,0,0,0,0a3.65,3.65,0,0,1,.38-.91,4.92,4.92,0,0,0,.4-1c.09-.28.18-.56.26-.84a14.16,14.16,0,0,0,1,3.1c0,1.06,0,2.12,0,3.18,0,.34,0,.68,0,1a4.6,4.6,0,0,0,0,.91,1.43,1.43,0,0,0,.39.63l.51.58c.07,7.54.24,15.26.49,22.93h0c-1-.33-2.07-.69-3.08-1.08h0C55.29,103.12,55,101.8,54.81,101Zm.94,4.48c1,.36,2,.7,3,1h0c0,.18,0,.37,0,.55h0c-1-.28-1.91-.61-2.85-1Zm2,23c-.23-5.6-.33-7.5-.57-13.22,0-.84-.07-1.67-.11-2.5a.51.51,0,0,0,0-.13h0c-.3-1.74-.69-3.8-1.06-5.76.89.33,1.79.64,2.71.89,0,0,0,0,0,0h0c.14,3.86.29,7.71.47,11.5.17,3.36.34,6.72.53,10.08h0C59.05,129,58.41,128.73,57.79,128.42Zm14.72.72c-.12-2-.19-4.16-.31-6.17.53-.08,1.06-.09,1.6-.15l.87-.06a5,5,0,0,1,.7,0V123l0,.42c0,.25,0,.51,0,.77l.09,1.61c0,1.08.1,2.15.14,3.23L75,129Zm24.23-3,.09,2.17c-6.83.28-13.66.48-20.48.71q-.12-2.94-.3-5.87c0-.3.06-.8-.25-1a.84.84,0,0,0-.52,0l-.67.06c-1,.09-1.91,0-2.85.21a.33.33,0,0,0-.25.32c.13,2.11.21,4.36.33,6.48l-2.39.09c-.42-6.56-.75-13.13-1-19.7,8.45-.34,16.9-.49,25.35-.75l2.23-.07Q96.36,117.43,96.74,126.12ZM91.09,97l7.5,10,.72,1c-8.34.34-16.68.49-25,.74-2,.06-3.94.12-5.91.2Q68.15,103.42,68,98ZM112.45,60.7a18.68,18.68,0,0,0,3.33,5.17c-1.44-.27-2.87-.6-4.3-.94A21.91,21.91,0,0,1,109,60.71Zm-6.68,0h2.69a22.34,22.34,0,0,0,2.41,4.22c-3,.09-5.9.16-8.85.27a25.63,25.63,0,0,1,2.13-4.49Zm-2.17,0a27.21,27.21,0,0,0-2.1,4.51,18.64,18.64,0,0,0-4.64.73c1-1.5,1.91-3,2.76-4.63A11.59,11.59,0,0,1,103.6,60.72ZM100,58.48a4.36,4.36,0,0,0,0,2.24c-1.33.41-1.53,2.27-2.4,3.28a53.44,53.44,0,0,1,.8-7.77c.66,0,1.33,0,2-.06C100.2,56.94,100.08,57.71,100,58.48Zm-1.56-10c.35.34.81.9.54,1.42a.26.26,0,0,0,.09.33c2,1,1.39,3.8,3.48,4.77-.4.24-.81.34-1.2.57-1.88-1.22-1-3.83-2.71-5.15.53-1.24-1-2.18-1.27-3.3A5.4,5.4,0,0,0,98.39,48.52Zm-7.22,7.26a3.35,3.35,0,0,0,1.08-1,3.79,3.79,0,0,0,.49-1.39c.34-2.23,1.56-1.93,1.76-2.77a.63.63,0,0,0,0-.3c-.4-1.12,2.08-2.46,2.1-4,0,1.53,2,2.63,1.52,4.08a.23.23,0,0,0,0,.28c1.78,1.22.85,3.76,2.57,5C97.52,55.8,94.35,55.84,91.17,55.78Zm1.69,17.93q.42-8.65.31-17.32l4.69-.11a46.36,46.36,0,0,0-.79,8.47c-.48.88-2.07,2.5.1,1.6.27,2.37,1,4.68,1,7.07C96.43,73.6,94.64,73.69,92.86,73.71Zm8.45-.23a15.39,15.39,0,0,0-2.63-.08c-.06-2.43-.78-4.77-1.05-7.17a20.22,20.22,0,0,1,3.8-.53q-.08,3.81.09,7.6C101.53,73.51,101.48,73.48,101.31,73.48ZM111,73c0,.64-.58.39-1.25.41l-7.7.08q-.16-3.92-.09-7.83c3-.12,6.1-.18,9.15-.29A51.15,51.15,0,0,0,111,73Zm.5.45a52.64,52.64,0,0,1,.08-8c1.18.28,2.36.55,3.54.79a30,30,0,0,0,.42,7.26C114.14,73.39,112.79,73.46,111.45,73.47Z"/><path class="cls-4" d="M63.26,83.78a.33.33,0,0,0-.51-.06c-1.52,1.41-1.65,3.54-1.5,5.49.19,2.42.39,4.83.44,7.26a.34.34,0,0,0,.34.34c.93,0,1.86,0,2.79,0h.05c.19,0,.39-.07.36-.31-.3-2.35-.15-4.63-.23-7,0-1.11-.08-2.24-.24-3.34a4,4,0,0,0-1.33-2.27A.4.4,0,0,0,63.26,83.78Zm1,4.55a16.11,16.11,0,0,1,.08,1.83c.06,2,0,4,.18,6l-2.17,0C62.3,94,62.18,92,62,89.87c-.17-1.86-.31-4,1-5.46a8.15,8.15,0,0,1,.93,1.38A10.22,10.22,0,0,1,64.26,88.33Z"/><path class="cls-4" d="M57.21,96.39c-.09-2.19-.19-4.37-.29-6.56-.08-1.92,0-4-.81-5.73-.14-.3-.52-.16-.6.09a9,9,0,0,0-.46,2.72c-.08,1.09-.11,2.19-.11,3.28,0,2,.05,3.93.09,5.89a.32.32,0,0,0,.24.32c.51.1,1,.22,1.52.31A.34.34,0,0,0,57.21,96.39Zm-.94-6.09c.09,1.89.17,3.78.25,5.67l-.83-.17c0-1.72-.07-3.44-.08-5.16,0-1,0-2,.06-2.94a15.55,15.55,0,0,1,.18-2.43A20.74,20.74,0,0,1,56.27,90.3Z"/><path class="cls-4" d="M61.94,82a1.9,1.9,0,0,0,2.16-.33,1.92,1.92,0,0,0,.44-2.15,2,2,0,0,0-2.32-1.11,1.87,1.87,0,0,0-.87.53,2.43,2.43,0,0,0-.52,1,1.79,1.79,0,0,0,.29,1.29A1.81,1.81,0,0,0,61.94,82Zm-.15-2.54a1,1,0,0,1,.61-.4,1.27,1.27,0,0,1,1.46.59,1.25,1.25,0,0,1-1.45,1.82,1.37,1.37,0,0,1-.94-1.17A1.46,1.46,0,0,1,61.79,79.49Z"/><path class="cls-4" d="M59.37,53a5,5,0,0,0,.56-.09,2.45,2.45,0,0,1,0,.27L60.09,55c0,.33.54.33.51,0l-.13-1.77,0-.38c.32-.08.63-.18.94-.29a.27.27,0,0,0,.18-.32.26.26,0,0,0-.32-.18,8,8,0,0,1-.83.26,6.32,6.32,0,0,1,0-.87c0-.14-.13-.26-.26-.26a.27.27,0,0,0-.26.26,5.56,5.56,0,0,0,0,1l-.53.08a.27.27,0,0,0-.26.26C59.11,52.91,59.23,53.06,59.37,53Z"/><path class="cls-4" d="M81.5,117.18a4,4,0,0,0-.19-1.42,1.61,1.61,0,0,0-1.43-.94,1.82,1.82,0,0,0-1.68.84,2,2,0,0,0-.26,1.51q.06.69.09,1.38c.07,1,.09,2,.21,2.93a.34.34,0,0,0,.34.34,1.45,1.45,0,0,0,.29,0,7.51,7.51,0,0,1,2.41-.22.35.35,0,0,0,.34-.34c0-.89-.05-1.78-.08-2.68C81.53,118.09,81.51,117.63,81.5,117.18Zm-2.63,3.91c-.14-1.39-.16-2.8-.28-4.19a1.25,1.25,0,0,1,.08-.74,1.45,1.45,0,0,1,.72-.64,1.05,1.05,0,0,1,1.36.67,5.52,5.52,0,0,1,.08,1.15c0,.4,0,.8,0,1.2l.06,2.35A7.55,7.55,0,0,0,78.87,121.09Z"/><path class="cls-4" d="M87.37,116.72a4,4,0,0,0-.19-1.42,1.61,1.61,0,0,0-1.43-1,1.84,1.84,0,0,0-1.68.85,2,2,0,0,0-.25,1.51l.09,1.37c.06,1,.08,2,.2,2.94a.34.34,0,0,0,.34.33,1,1,0,0,0,.3,0,7.18,7.18,0,0,1,2.4-.22.35.35,0,0,0,.34-.34c0-.89,0-1.78-.08-2.68C87.4,117.63,87.39,117.17,87.37,116.72Zm-2.62,3.91c-.15-1.39-.16-2.8-.28-4.19a1.1,1.1,0,0,1,.08-.74,1.39,1.39,0,0,1,.71-.64,1.05,1.05,0,0,1,1.36.67,6.3,6.3,0,0,1,.09,1.15l0,1.2c0,.78.05,1.56.07,2.34A7.48,7.48,0,0,0,84.75,120.63Z"/><path class="cls-4" d="M93.25,116.32a4,4,0,0,0-.2-1.42,1.59,1.59,0,0,0-1.43-.94,1.81,1.81,0,0,0-1.67.84,2.06,2.06,0,0,0-.26,1.52l.09,1.37c.06,1,.08,2,.2,2.93a.36.36,0,0,0,.34.34,1.54,1.54,0,0,0,.3,0A7.48,7.48,0,0,1,93,120.7a.33.33,0,0,0,.33-.33c0-.9,0-1.79-.07-2.68C93.27,117.23,93.26,116.78,93.25,116.32Zm-2.63,3.91c-.14-1.39-.16-2.8-.28-4.19a1.18,1.18,0,0,1,.08-.74,1.52,1.52,0,0,1,.71-.64,1,1,0,0,1,1.36.67,5,5,0,0,1,.09,1.16l0,1.2c0,.78,0,1.56.07,2.34A7.51,7.51,0,0,0,90.62,120.23Z"/><path class="cls-4" d="M34.87,124.15a.34.34,0,0,0,.33.34,1.54,1.54,0,0,0,.3,0,7.51,7.51,0,0,1,2.41-.22.34.34,0,0,0,.33-.34c0-.89-.05-1.78-.07-2.68,0-.45,0-.91,0-1.36a4,4,0,0,0-.19-1.42,1.62,1.62,0,0,0-1.44-.94,1.81,1.81,0,0,0-1.67.84,2,2,0,0,0-.26,1.51c0,.46.06.92.09,1.38C34.72,122.19,34.75,123.18,34.87,124.15Zm.43-5.32a1.47,1.47,0,0,1,.71-.64,1,1,0,0,1,1.36.67,4.92,4.92,0,0,1,.09,1.15c0,.4,0,.8,0,1.2l.06,2.35a7.51,7.51,0,0,0-2.06.2c-.14-1.39-.16-2.8-.28-4.19A1.25,1.25,0,0,1,35.3,118.83Z"/><path class="cls-4" d="M40.74,123.8a.35.35,0,0,0,.34.34,1.45,1.45,0,0,0,.29,0,7.54,7.54,0,0,1,2.41-.22.34.34,0,0,0,.34-.33c0-.9,0-1.79-.08-2.68,0-.46,0-.91,0-1.37a4,4,0,0,0-.19-1.42,1.61,1.61,0,0,0-1.43-.94,1.82,1.82,0,0,0-1.68.84,2.06,2.06,0,0,0-.26,1.52c0,.45.07.91.09,1.37C40.6,121.84,40.62,122.83,40.74,123.8Zm.43-5.32a1.49,1.49,0,0,1,.72-.64,1.05,1.05,0,0,1,1.36.67,5.57,5.57,0,0,1,.08,1.16c0,.4,0,.8,0,1.2,0,.78,0,1.56.07,2.34a7.58,7.58,0,0,0-2.07.2c-.14-1.39-.16-2.8-.28-4.19A1.25,1.25,0,0,1,41.17,118.48Z"/><path class="cls-4" d="M46.61,123.62A.35.35,0,0,0,47,124a1.54,1.54,0,0,0,.3,0,7.45,7.45,0,0,1,2.4-.22.35.35,0,0,0,.34-.34c0-.89-.05-1.78-.08-2.68,0-.45,0-.91,0-1.36a4,4,0,0,0-.19-1.42,1.6,1.6,0,0,0-1.43-.94,1.82,1.82,0,0,0-1.68.84,2,2,0,0,0-.25,1.51l.09,1.37C46.47,121.66,46.49,122.65,46.61,123.62Zm.44-5.32a1.39,1.39,0,0,1,.71-.64,1.05,1.05,0,0,1,1.36.67,5.52,5.52,0,0,1,.09,1.15l0,1.2c0,.78,0,1.56.07,2.34a7.48,7.48,0,0,0-2.06.21c-.15-1.39-.16-2.8-.28-4.19A1.1,1.1,0,0,1,47.05,118.3Z"/><path class="cls-4" d="M95.77,42.51l.56-.06,0,1.78a.23.23,0,0,0,.08.18.23.23,0,0,0,.19.07.25.25,0,0,0,.25-.27l-.05-1.82.69-.07a.28.28,0,0,0,.23-.3.25.25,0,0,0-.28-.23l-.65.08,0-.83a.23.23,0,0,0-.08-.18.26.26,0,0,0-.19-.07.25.25,0,0,0-.25.27l0,.86-.58.07a.27.27,0,0,0-.24.29A.25.25,0,0,0,95.77,42.51Z"/><path class="cls-4" d="M117.13,30.21c-.44.19-.89.34-1.34.52a74.28,74.28,0,0,1-12.86,3.64,86.25,86.25,0,0,1-14.07,1.51c-3.45,0-7.14,0-10.83-.13s-7.37-.4-10.79-.7a145.21,145.21,0,0,0,24.8.73,93.25,93.25,0,0,0,12.25-1.62c1-.23,2-.41,3-.67l2.92-.78L113,31.8c.94-.3,1.85-.68,2.76-1-.73.3-1.52.65-2.41,1l-2.9,1A82.32,82.32,0,0,1,95,36.09l0-.28a90.54,90.54,0,0,1-11,.76c-1.81,0-3.61,0-5.41,0s-3.58-.14-5.37-.28c-3.57-.23-7.13-.59-10.7-.92a101.21,101.21,0,0,0-10.73-.57c.5.12.18.26.06.37h0c-.1.11-.06.19.83.23-.89,0-.93-.12-.83-.23,3.51.13,7,.42,10.53.71s7,.56,10.57.74,7.06.27,10.63.22c1.79,0,3.58-.09,5.38-.17s3.61-.24,5.42-.46a125.86,125.86,0,0,1-16.89.7c-5.6-.1-11.2-.47-16.72-.9a138.51,138.51,0,0,0-16.17-.57,43.29,43.29,0,0,0-14.81,3,21.65,21.65,0,0,0-2.86,1.37,11.9,11.9,0,0,0-4,1.91A11.56,11.56,0,0,0,20,44.84a2.13,2.13,0,0,0-1-.79,5.1,5.1,0,0,1-1.23-.65A1.16,1.16,0,0,1,17.48,42a6.68,6.68,0,0,1,2.29-2.79L19,38.39c-1.66,1-3.09,2-4.36,2.7a7.41,7.41,0,0,1-3.17,1.22,1.45,1.45,0,0,1-1-.34,1.26,1.26,0,0,1-.32-.42A2,2,0,0,1,10,40.9a5,5,0,0,1,.35-2,7.66,7.66,0,0,1,.59-1.3c.12-.23.26-.47.41-.71s.33-.5.51-.75a22,22,0,0,1,6.85-6A30.8,30.8,0,0,1,27.55,27a64,64,0,0,1,18-1c8.3.59,16,2.47,23.48,4.15a125.63,125.63,0,0,0,16.17,2.55,99.77,99.77,0,0,0,16.37.24c.48,0,1-.07,1.56-.13l1.74-.23c.6-.09,1.22-.15,1.83-.26L108.5,32c.59-.11,1.18-.19,1.72-.32l1.54-.34c.95-.21,1.73-.37,2.19-.5,1.36-.36,1.42-.35,1.22-.26a77.29,77.29,0,0,1-18.73,3.1,107.08,107.08,0,0,1-23-1.73,99.16,99.16,0,0,0,23,1.73,75,75,0,0,0,18.55-3c-.21.09-.41.19,0,.11l1-.34c.29-.1.61-.19.91-.3l.81-.31c3.66-1.35,2.72-1.08,1-.27Z"/></g></g></svg>