<svg xmlns="http://www.w3.org/2000/svg" viewBox="0 0 841.89 394.1"><defs><style>.cls-1{fill:#f8a16f;}.cls-2{fill:#00273f;}</style></defs><g id="gojzd"><path class="cls-1" d="M293.5,48.79a38.53,38.53,0,0,1-1.9,3.87c-3.23,5.79-7.71,10.75-12.14,15.6s-9,9.71-13.73,14.53c-9.43,9.63-19.35,19.26-29.75,29.37-7.32,7-15,14.74-22.27,22.75s-14.2,16.32-20.19,24.36c14.41-18.93,31.76-36.47,49.24-53.57,8.74-8.57,17.5-17.07,25.89-25.73,2.09-2.16,4.18-4.32,6.21-6.51s4.06-4.38,6.05-6.59c4-4.37,7.87-8.93,10.71-14.08a74.16,74.16,0,0,1-9.92,13.78c-10.32,11.89-21.2,23-32,34l-.41-.43c-15.2,15.67-30.12,30.44-43.58,46.28A250.13,250.13,0,0,0,187,171.18a170.55,170.55,0,0,0-14.84,27.65c.82-1.26.73-.3.83.1-.05.09-.09.18-.13.27,0-.09.08-.18.13-.27.09.36.28.27,1.4-2.09-1.12,2.36-1.31,2.45-1.4,2.09a234.42,234.42,0,0,1,32.86-51.55c13-15.78,27.56-30.4,42.66-45.61-11.69,11.85-23.24,23.53-33.91,35.77a278.69,278.69,0,0,0-28.78,38.61c-4.13,6.82-7.95,13.81-11.37,21a221,221,0,0,0-8.9,22.06,202.66,202.66,0,0,0-6,22.94,186.36,186.36,0,0,0-2.85,23.56c-.16,2.66-.19,7.95,0,10.55a60,60,0,0,0,0,15.39,48.87,48.87,0,0,0,1.52,7.2l.57,1.69.28.84.33.8.67,1.6.76,1.51a3.22,3.22,0,0,0-2.58,1,7.66,7.66,0,0,1-2.43,1.71c-.87.23-1.92-.08-3.15-1.82s-2.61-4.95-3.52-10.45l-2.33.48c.44,5.76,1,10.76,1.46,14.84.08,1,.21,2,.3,2.89s.09,1.76.15,2.51a11.51,11.51,0,0,1-.28,3.77,2.36,2.36,0,0,1-1.51,1.64,2.26,2.26,0,0,1-1.22,0,6.09,6.09,0,0,1-1.6-.8,13.14,13.14,0,0,1-2-1.6A28.73,28.73,0,0,1,140,317a35.14,35.14,0,0,1-2.2-3.47,47.93,47.93,0,0,1-2.11-4.45A74.64,74.64,0,0,1,131,285a108.12,108.12,0,0,1,.26-12.71,124.63,124.63,0,0,1,1.62-12.76c2.77-16.94,8.3-33.91,14.8-49.36a213.12,213.12,0,0,1,39.51-60.35c11.23-12,23.48-23.71,36.12-34.81s25.49-21.79,37.5-32.31c4.37-3.83,10.18-9.29,15.4-14.33,2.58-2.54,5.08-4.93,7.08-7s3.54-3.84,4.44-5c1.32-1.6,1.94-2.48,2.24-2.86s.26-.27.11,0a76.64,76.64,0,0,1-9.22,10.82l-5,5-5.12,5c-6.86,6.56-13.87,12.92-20.89,19.2-17.27,15.33-34.9,30.4-51.31,47.11,16.2-16.21,33.76-31.44,51.31-47.11,7-6.24,14-12.53,20.8-19l5.06-4.89,5-5a79.63,79.63,0,0,0,9.14-10.63c-.33.6-.64,1.19.05.28,0,0,.82-1.2,1.74-2.76a43.38,43.38,0,0,0,2.38-4.9,30.53,30.53,0,0,0,1.73-5.91c.12-.72.2-1.26.28-1.8-.06.45-.12.92-.2,1.44a15.57,15.57,0,0,1-.27,1.59c-.1.61-.25,1.27-.44,2A34.94,34.94,0,0,1,293.5,48.79Z"/><path class="cls-2" d="M338.07,172.34c-3-.42-6.47.95-7.12,4.15a.5.5,0,0,0,.48.63c3.35-.33,7.42.6,10.44-.42C342.34,174.4,340.25,172.49,338.07,172.34Zm-6,3.78a3.55,3.55,0,0,1,1.19-1.7c2.17-1.7,7.34-1.88,7.64,1.65Z"/><path class="cls-2" d="M315.1,161.19c3.4-9.34-5.65-9.27-4.84-.49C308.94,162,314.94,161.79,315.1,161.19Zm-.89-.63-3,0a9.29,9.29,0,0,1,.2-2.93c.17-1.36,1.63-3.36,3.06-2.16C315.43,157,314.36,158.94,314.21,160.56Z"/><path class="cls-2" d="M391.61,223.78a28.58,28.58,0,0,0-6.92-7c-.87-.67-1.76-1.32-2.67-1.94a1.61,1.61,0,0,1-.43-.44c-.65-.82-1.13-1.84-1.73-2.7-2.21-3.14-4.84-6-7-9.17-1.06-1.6-1.76-3.49-2.93-5a23,23,0,0,0-3.5-3.33c-1.49-1.26-2.8-2.71-4.28-4-1.85-1.56-4-2.72-5.83-4.27a62.17,62.17,0,0,1-.9-15.1c.66.08,2.89.89,2.25-.51-3.74-3.42-5.92-8.26-8.44-12.32-8.55.35-17.28-.72-25.73.77-.78-3.06.61-6.25.88-9.33.88.13,6-1.74,4.58-2.88-4.52-1.93-3.41-7.83-7.5-10.14.59-1.77-1-3.22-2.13-4.43-1.83-.77-2.93-8.32-4.15-6.61a.77.77,0,0,0-.15.39c.06,5.75-6.3,8.47-4.95,11.83-3.65,1.82-2.94,5.87-4.91,8.76-.34.94-4.59,2.65-2.51,3.23,1.53.14,3.09.05,4.63.1q.24,18.42-.67,36.85a15.49,15.49,0,0,0-7.78,6,20.55,20.55,0,0,1-5.59,6.11c-4.27,2.81-9.27,4.29-14,6.27-3.76,1.59-8.18,3.63-10,7.54-1.11,2.37-1,5.14-1.71,7.63a28.83,28.83,0,0,1-4,8.17,37.24,37.24,0,0,1-5,5.75c-.69.65-1.61,1.25-2.27,2l-1.26,0-.3-8.43c-.25-7-.49-14.82-.74-21.84l1.4-1.38a3.48,3.48,0,0,0,.94-1.15,5.65,5.65,0,0,0,.16-1.69c0-.78.06-1.56.08-2.33.07-3.06.06-6.12.05-9.17a.19.19,0,0,0,0-.07.58.58,0,0,0,0-.26c-.77-2.95-1.63-5.87-2.46-8.81a.72.72,0,0,0-1.37,0c-.72,2.94-1.68,5.81-2.42,8.73v0a.84.84,0,0,0-.06.24c-.07,2.11,0,4.23,0,6.34l-.32-.58a50.92,50.92,0,0,1-.26-6.64,11.25,11.25,0,0,0-.23-2.89,30.51,30.51,0,0,0-1-3.05.72.72,0,0,0-1.29-.17c-.18.34-.36.68-.53,1q-3.81-17.61-6.6-35.39a1.08,1.08,0,0,0-.08-.19c0-.78-1.21-1.08-1.36-.23q-3.58,19.41-6.43,38.94a29.48,29.48,0,0,1-.94-4.85.54.54,0,0,0,0-.1.08.08,0,0,0,0,0,.69.69,0,0,0-.67-.56h-.08a.58.58,0,0,0-.55.37.42.42,0,0,0,0,.12s0,0,0,0a48.66,48.66,0,0,1-1.36,5,10.61,10.61,0,0,1-.42,1.06c-.46-2.88-1.74-5.53-2.39-8.36a.71.71,0,0,0-1.36,0c-.73,2.93-1.68,5.8-2.43,8.73v0a.94.94,0,0,0-.06.24c-.1,3,0,6,0,9,0,.72,0,1.44,0,2.16a8.71,8.71,0,0,0,.06,1.91,3.13,3.13,0,0,0,.82,1.33l.88,1v.17c.12,13.06.35,25.9.73,38.75l-13.21.56c-10.49.43-25.76,1-36.25,1.44-.91,0-.91,1.45,0,1.41,15.63-.64,32-1.6,49.49-2.37l1.41-.05.53,0c.49,2.18,1,4.56,1.46,7,.11.55.22,1.1.32,1.65s.17.87.25,1.3.21,1.08.32,1.62c.89,4.78,1.7,9.34,2.24,12.51l-4.25.16-1.44.06c-15.85.57-17.06.54-32.92,1-4.35.13-13.36.31-17.71.49-.9,0-.91,1.45,0,1.42,18-.75,26.06-.77,44.08-1.31l6.61-.21,1.44-.06,4.25-.16c.49,11.47.69,15.55,1.2,27.45.06,1.31.11,2.63.17,3.95,0,.21,0,.42,0,.63l-1.73.07c-14.75.59-29.5,1-44.26,1.51-4,.14-8,.28-12,.45-.91,0-.7,1.39.22,1.35,15.57-.65,30.94-1,46.51-1.54,4-.14,8-.28,12-.45h.09a50,50,0,0,0,5.27,2.25.81.81,0,0,0,.34,0l.12,0q9.36,0,18.7-.38h.05a.83.83,0,0,0,.27,0l.11,0c15.58-.65,31.16-1.06,46.73-1.61q6-.19,12-.45a.71.71,0,0,0,.71-.71q-.78-18.36-1.55-36.73c-.08-1.74-.15-3.47-.22-5.21,2.31-.08,4.62-.16,6.92-.26.49,0,1-.61.62-1.06l-12.12-16.16L305.28,235a6.13,6.13,0,0,0-.38-.51,1,1,0,0,0-.87-.35c-1.23-.05-2.51.1-3.74.15l-14,.59L258.23,236c.29-.26.6-.51.89-.78a38.54,38.54,0,0,0,4.2-4.56,32.25,32.25,0,0,0,4.16-6.83,31.22,31.22,0,0,0,2.21-8.55c.62-4.48,4.91-6.9,8.65-8.6,4.52-2.06,9.33-3.47,13.7-5.87a18.39,18.39,0,0,0,5.73-4.59c1.27-1.63,2.23-3.48,3.6-5a14,14,0,0,1,5.75-3.6c.19-.07.33-.1.61-.19a101.88,101.88,0,0,1,11.11-.53c12.29.17,24.69-.11,37,.12,1.45,1.17,3,2.15,4.52,3.25s2.69,2.52,4.1,3.74,2.67,2.18,3.88,3.42,1.87,3,2.8,4.46c2,3.32,4.62,6.2,6.94,9.3.54.73,1.07,1.47,1.56,2.23a10.59,10.59,0,0,0,1.38,2.12,16.27,16.27,0,0,0,1.54,1.07c3,2.15,6.08,4.62,8.06,7.75C391,225,392,224.4,391.61,223.78ZM237.22,258.13q8.58-.12,17.13-.67a1,1,0,0,0,.2-.06c.35,8.4.72,16.76,1.15,25q.56,10.59,1.23,21.16-8.79.39-17.6.35Q238.05,281,237.22,258.13Zm-3.15-60c0-1.84,0-3.68,0-5.51a.82.82,0,0,0,0-.49c0-.39,0-.78,0-1.18,1.18-.07,2.35-.09,3.52-.06q0,2.32,0,4.65a.74.74,0,0,0,0,.21c0,.9,0,1.79,0,2.69,0,1.34-.05,2.69-.13,4,0,.6-.45.87-.87,1.28l-.94.93-.88-1a3.84,3.84,0,0,1-.56-.66,2.14,2.14,0,0,1-.09-.87C234.07,200.76,234.07,199.42,234.07,198.08Zm1.78-14.21c.53,1.85,1.05,3.7,1.54,5.55-1,0-2.08,0-3.13.06C234.76,187.6,235.32,185.74,235.85,183.87Zm.23,22.29,1.69-1.67a3.36,3.36,0,0,0,.94-1.15,5.65,5.65,0,0,0,.16-1.69c0-.78.06-1.56.08-2.33,0-1.21,0-2.43,0-3.64,1.51-3.34,3-6.67,4.67-9.94.76,2,1.72,4,2.65,5.94,1.24,2.6,2.65,5.12,4.05,7.63h0v1.85a9.27,9.27,0,0,0,.05,1.9,3,3,0,0,0,.83,1.34l1.42,1.62c.55,15.57,1.07,31.48,1.7,47.31-5.76.29-11.53.73-17.31.65-.29-8.55-.55-17.1-.72-25.65-.15-7.06-.25-15-.32-22.15Zm1,49.25c5.78.07,11.54-.36,17.3-.66h0l.06,1.31a.36.36,0,0,0-.15,0q-8.58.56-17.18.67C237.15,256.28,237.14,255.84,237.12,255.41Zm18.15-57c0,1.34-.05,2.69-.13,4,0,.6-.45.87-.87,1.28l-.94.93c-.29-.34-.58-.67-.88-1a3.84,3.84,0,0,1-.56-.66,2,2,0,0,1-.09-.87c0-1.34,0-2.68,0-4,0-2.39-.06-4.79,0-7.18,1.17-.07,2.35-.09,3.52-.06C255.31,193.36,255.32,195.87,255.27,198.39Zm-.16-9c-1,0-2.09,0-3.13.06.5-1.88,1.06-3.74,1.59-5.61C254.1,185.72,254.62,187.57,255.11,189.42Zm-7.46,1.8c-.53-1.08-1-2.2-1.49-3.3.54-.91,1-1.85,1.53-2.78.16.42.31.85.43,1.29a9.69,9.69,0,0,1,.22,2.94c0,1.08,0,2.17,0,3.25C248.14,192.15,247.88,191.69,247.65,191.22Zm-8.37-38.66c1.84,11.2,3.93,22.33,6.35,33.42l-.19.33a24.9,24.9,0,0,1-1-2.53.73.73,0,0,0-1.33-.11s0,0-.07.08c-1.44,2.79-2.77,5.63-4.07,8.49v-2.09s0,0,0-.07a.8.8,0,0,0,0-.26c-.77-2.95-1.63-5.87-2.46-8.81a.71.71,0,0,0-1.36,0c-.39,1.59-.85,3.15-1.31,4.71Q236.3,169.1,239.28,152.56Zm-12.6,35.73c-1.08,0-2.15,0-3.23.05.5-1.89,1.07-3.76,1.6-5.63A35.26,35.26,0,0,1,226.68,188.29ZM223.27,201c0-1.34,0-2.68,0-4,0-2.39-.06-4.78,0-7.17a34.5,34.5,0,0,1,3.52-.06c0,2.51,0,5,0,7.54,0,1.34-.05,2.69-.13,4,0,.6-.45.86-.86,1.27l-.95.93-.88-1a3.91,3.91,0,0,1-.56-.66A2.14,2.14,0,0,1,223.27,201Zm4.22,42.92a1.22,1.22,0,0,0-.28-.57c-.31-.32-.54-.27-1-.29a3.7,3.7,0,0,0-.49,0q-.25-8.75-.42-17.5c-.14-7-.23-13.36-.3-20.34h0a.61.61,0,0,0,.24-.15l1.69-1.67a3.36,3.36,0,0,0,.94-1.15,6,6,0,0,0,.17-1.69c0-.78.05-1.55.07-2.33.05-2.19.06-4.38.05-6.58a.3.3,0,0,0,0-.08,8.37,8.37,0,0,1,.79-1.91,11.6,11.6,0,0,0,.85-2.06q.28-.88.54-1.77a32.51,32.51,0,0,0,2.21,6.54c0,2.23,0,4.46,0,6.69,0,.72,0,1.44,0,2.16a9.27,9.27,0,0,0,.05,1.9,3,3,0,0,0,.83,1.34c.35.41.71.81,1.07,1.22.15,15.88.5,32.15,1,48.31h0c-2.19-.68-4.36-1.44-6.5-2.26h0C228.49,248.46,227.91,245.67,227.49,243.88Zm2,9.43c2,.77,4.13,1.49,6.23,2.13h0c0,.39,0,.78,0,1.17h0c-2-.59-4-1.29-6-2C229.63,254.16,229.54,253.73,229.46,253.31Zm4.31,48.46c-.5-11.8-.7-15.82-1.21-27.87-.08-1.76-.15-3.51-.22-5.26a.77.77,0,0,0-.06-.28,0,0,0,0,1,0,0c-.64-3.66-1.45-8-2.24-12.13,1.88.69,3.78,1.34,5.72,1.88,0,0,0,0,0,0h0c.29,8.14.62,16.25,1,24.25q.51,10.62,1.1,21.23h0C236.41,303,235.07,302.41,233.77,301.77Zm31,1.5c-.25-4.25-.41-8.75-.66-13,1.12-.16,2.23-.19,3.36-.31.61-.06,1.23-.08,1.85-.14a9.74,9.74,0,0,1,1.47-.06c0,.2,0,.45,0,.55l.06.89.09,1.62c.06,1.14.13,2.27.18,3.41.12,2.26.22,4.53.31,6.79l-1.42.05Zm51-6.36c.07,1.53.13,3.06.2,4.58-14.39.59-28.78,1-43.16,1.49q-.25-6.19-.62-12.37c0-.63.11-1.69-.52-2.09a1.7,1.7,0,0,0-1.11-.09l-1.42.12c-2,.18-4,.07-6,.43a.73.73,0,0,0-.52.68c.27,4.45.43,9.19.69,13.66l-5,.19c-.89-13.82-1.59-27.66-2.18-41.5,17.8-.73,35.62-1,53.43-1.58l4.69-.15Q315.06,278.6,315.83,296.91Zm-11.89-61.38,15.8,21.06c.5.67,1,1.34,1.51,2-17.56.7-35.14,1-52.7,1.55-4.15.13-8.3.26-12.45.43q-.5-11.52-.91-23Zm45-76.48A39.58,39.58,0,0,0,356,170c-3-.58-6-1.27-9.06-2a45.68,45.68,0,0,1-5.3-8.9Zm-14.08,0,5.66,0a47.89,47.89,0,0,0,5.08,8.88c-6.22.21-12.43.35-18.65.58a55.33,55.33,0,0,1,4.49-9.46Zm-4.57,0a55.49,55.49,0,0,0-4.42,9.51,39.36,39.36,0,0,0-9.79,1.53c2.09-3.15,4-6.41,5.81-9.75A24.6,24.6,0,0,1,330.3,159.09Zm-7.69-4.71a9.18,9.18,0,0,0,0,4.71c-2.78.88-3.22,4.8-5,6.92a111.33,111.33,0,0,1,1.68-16.37q2.1,0,4.2-.12C323.14,151.14,322.87,152.76,322.61,154.38Zm-3.29-21c.73.72,1.71,1.89,1.14,3a.5.5,0,0,0,.18.68c4.13,2.18,2.94,8,7.33,10.05-.83.51-1.69.73-2.51,1.22-4-2.57-2-8.09-5.72-10.86,1.13-2.62-2.05-4.59-2.68-7A11.7,11.7,0,0,0,319.32,133.4Zm-15.21,15.3a7.24,7.24,0,0,0,2.27-2.21,7.73,7.73,0,0,0,1-2.92c.72-4.69,3.3-4.07,3.71-5.84a1.15,1.15,0,0,0-.09-.63c-.83-2.37,4.4-5.18,4.44-8.38,0,3.22,4.25,5.54,3.2,8.58a.5.5,0,0,0,.08.61c3.75,2.56,1.79,7.91,5.42,10.59C317.48,148.73,310.8,148.81,304.11,148.7Zm3.55,37.77q.9-18.24.67-36.5l9.87-.23c-.92,5.91-1.83,11.87-1.65,17.86-1,1.86-4.37,5.25.21,3.37.56,5,2,9.86,2.17,14.9Q313.31,186.41,307.66,186.47Zm17.81-.49a32,32,0,0,0-5.54-.15c-.13-5.13-1.64-10.06-2.2-15.12a41.32,41.32,0,0,1,8-1.11q-.15,8,.18,16C325.94,186.06,325.84,186,325.47,186Zm20.32-1c.1,1.36-1.22.82-2.63.87l-16.23.17q-.36-8.25-.2-16.51c6.43-.24,12.86-.39,19.3-.6A106.44,106.44,0,0,0,345.79,185Zm1,.94A112.58,112.58,0,0,1,347,169c2.48.58,5,1.16,7.45,1.66a63.69,63.69,0,0,0,.88,15.29C352.51,185.8,349.67,186,346.83,186Z"/><path class="cls-2" d="M245.3,207.7a.71.71,0,0,0-1.08-.14c-3.21,3-3.49,7.47-3.16,11.58.41,5.1.82,10.18.93,15.3a.7.7,0,0,0,.7.71c2,0,3.92,0,5.88,0l.11,0c.4.07.83-.14.76-.65-.62-5-.31-9.75-.49-14.73a69,69,0,0,0-.5-7,8.4,8.4,0,0,0-2.8-4.77A.72.72,0,0,0,245.3,207.7Zm2.11,9.58a38.34,38.34,0,0,1,.17,3.86c.12,4.25-.08,8.34.37,12.55-1.52,0-3,.05-4.57,0q-.16-6.61-.78-13.2c-.36-3.92-.66-8.42,2.17-11.51a18.1,18.1,0,0,1,2,2.91C247.26,212.92,247.31,216.19,247.41,217.28Z"/><path class="cls-2" d="M232.55,234.26q-.3-6.9-.61-13.82c-.18-4.05.1-8.33-1.71-12.07a.69.69,0,0,0-1.27.18,18.63,18.63,0,0,0-1,5.74c-.17,2.3-.22,4.61-.23,6.91,0,4.14.1,8.27.18,12.41a.72.72,0,0,0,.52.68c1.07.2,2.13.46,3.19.66A.72.72,0,0,0,232.55,234.26Zm-2-12.83q.26,6,.53,12l-1.75-.36c-.07-3.62-.16-7.25-.17-10.87,0-2.07,0-4.14.12-6.2a31.75,31.75,0,0,1,.37-5.12C230.68,214.19,230.41,218,230.57,221.43Z"/><path class="cls-2" d="M242.51,204a4.05,4.05,0,0,0,5.48-5.24,4.15,4.15,0,0,0-4.88-2.34,4.08,4.08,0,0,0-1.85,1.13,5.34,5.34,0,0,0-1.1,2.19,3.86,3.86,0,0,0,.61,2.72A4.11,4.11,0,0,0,242.51,204Zm-.31-5.37a2.29,2.29,0,0,1,1.29-.84,2.69,2.69,0,0,1,3.06,1.25,2.64,2.64,0,0,1-3.05,3.84,2.88,2.88,0,0,1-2-2.46A3.15,3.15,0,0,1,242.2,198.64Z"/><path class="cls-2" d="M237.1,142.92c.39,0,.79-.11,1.18-.19,0,.19,0,.37,0,.56l.28,3.74c.06.69,1.15.7,1.1,0l-.29-3.74-.06-.8a16.64,16.64,0,0,0,2-.61.56.56,0,0,0,.38-.68.55.55,0,0,0-.67-.38,17.87,17.87,0,0,1-1.75.57,12.71,12.71,0,0,1,.05-1.85.54.54,0,0,0-.54-.54.55.55,0,0,0-.55.54,13.39,13.39,0,0,0,0,2.1c-.36.08-.73.14-1.1.19a.56.56,0,0,0-.55.55A.55.55,0,0,0,237.1,142.92Z"/><path class="cls-2" d="M283.73,278.07a8.56,8.56,0,0,0-.4-3,3.39,3.39,0,0,0-3-2,3.83,3.83,0,0,0-3.52,1.78,4.26,4.26,0,0,0-.55,3.18c.07,1,.13,1.93.19,2.89.13,2.06.18,4.14.44,6.19a.72.72,0,0,0,.7.71,2.22,2.22,0,0,0,.63-.08,15.76,15.76,0,0,1,5.08-.46.72.72,0,0,0,.7-.71c-.05-1.88-.1-3.77-.16-5.65C283.78,280,283.76,279,283.73,278.07Zm-5.54,8.24c-.3-2.93-.33-5.89-.59-8.83a2.52,2.52,0,0,1,.17-1.56,3.17,3.17,0,0,1,1.5-1.35,2.23,2.23,0,0,1,2.87,1.42,11,11,0,0,1,.18,2.43c0,.84.05,1.69.08,2.53,0,1.65.09,3.29.14,4.93A16.28,16.28,0,0,0,278.19,286.31Z"/><path class="cls-2" d="M296.11,277.1a8.42,8.42,0,0,0-.41-3,3.41,3.41,0,0,0-3-2,3.86,3.86,0,0,0-3.53,1.78,4.29,4.29,0,0,0-.54,3.19c.07,1,.13,1.93.19,2.89.13,2.06.18,4.14.43,6.18a.73.73,0,0,0,.71.71,2.7,2.7,0,0,0,.63-.07,15.43,15.43,0,0,1,5.07-.47.71.71,0,0,0,.71-.71c-.05-1.88-.11-3.76-.16-5.64C296.16,279,296.13,278.06,296.11,277.1Zm-5.54,8.24c-.3-2.93-.34-5.9-.59-8.83a2.45,2.45,0,0,1,.17-1.56,3.12,3.12,0,0,1,1.5-1.35,2.22,2.22,0,0,1,2.86,1.41,11.06,11.06,0,0,1,.19,2.44c0,.84.05,1.68.07,2.53.05,1.64.1,3.29.14,4.93A15.43,15.43,0,0,0,290.57,285.34Z"/><path class="cls-2" d="M308.48,276.26a8.56,8.56,0,0,0-.4-3,3.39,3.39,0,0,0-3-2,3.83,3.83,0,0,0-3.52,1.78,4.26,4.26,0,0,0-.55,3.18c.07,1,.13,1.93.19,2.89.13,2.06.18,4.14.44,6.19a.72.72,0,0,0,.7.71,2.22,2.22,0,0,0,.63-.08,15.72,15.72,0,0,1,5.07-.46.72.72,0,0,0,.71-.71c-.05-1.88-.1-3.77-.16-5.65C308.53,278.18,308.51,277.22,308.48,276.26Zm-5.54,8.24c-.3-2.93-.33-5.89-.59-8.83a2.52,2.52,0,0,1,.17-1.56,3.17,3.17,0,0,1,1.5-1.35,2.23,2.23,0,0,1,2.87,1.42,11,11,0,0,1,.18,2.43c0,.84.05,1.69.07,2.53l.15,4.93A16.28,16.28,0,0,0,302.94,284.5Z"/><path class="cls-2" d="M185.46,292.76a.73.73,0,0,0,.71.71,2.7,2.7,0,0,0,.63-.07,15.43,15.43,0,0,1,5.07-.47.71.71,0,0,0,.71-.71c-.05-1.88-.11-3.76-.16-5.64l-.09-2.88a8.41,8.41,0,0,0-.4-3,3.41,3.41,0,0,0-3-2,3.86,3.86,0,0,0-3.53,1.78,4.28,4.28,0,0,0-.54,3.19c.07,1,.13,1.93.19,2.89C185.16,288.64,185.21,290.72,185.46,292.76Zm.92-11.21a3.12,3.12,0,0,1,1.5-1.35,2.22,2.22,0,0,1,2.86,1.41,11.71,11.71,0,0,1,.19,2.44c0,.84,0,1.68.07,2.53.05,1.64.1,3.29.14,4.93a15.43,15.43,0,0,0-4.34.43c-.3-2.93-.34-5.9-.59-8.83A2.45,2.45,0,0,1,186.38,281.55Z"/><path class="cls-2" d="M197.83,292a.74.74,0,0,0,.71.71,2.22,2.22,0,0,0,.63-.08,15.72,15.72,0,0,1,5.07-.46.71.71,0,0,0,.71-.71c0-1.88-.1-3.76-.16-5.65,0-1,0-1.92-.08-2.88a8.56,8.56,0,0,0-.4-3,3.41,3.41,0,0,0-3-2,3.83,3.83,0,0,0-3.52,1.78,4.28,4.28,0,0,0-.55,3.19c.07,1,.13,1.92.19,2.89C197.53,287.9,197.58,290,197.83,292Zm.92-11.21a3.07,3.07,0,0,1,1.5-1.35,2.22,2.22,0,0,1,2.87,1.41,11,11,0,0,1,.18,2.43c0,.85,0,1.69.07,2.53l.15,4.94a15.87,15.87,0,0,0-4.35.42c-.3-2.93-.34-5.89-.59-8.83A2.48,2.48,0,0,1,198.75,280.82Z"/><path class="cls-2" d="M210.21,291.64a.73.73,0,0,0,.71.71,2.56,2.56,0,0,0,.62-.07,15.51,15.51,0,0,1,5.08-.47.72.72,0,0,0,.71-.7c-.05-1.89-.11-3.77-.16-5.65l-.09-2.88a8.41,8.41,0,0,0-.4-3,3.42,3.42,0,0,0-3-2,3.88,3.88,0,0,0-3.53,1.78,4.29,4.29,0,0,0-.54,3.19c.07,1,.13,1.93.19,2.89C209.91,287.52,210,289.6,210.21,291.64Zm.92-11.21a3.08,3.08,0,0,1,1.5-1.35,2.22,2.22,0,0,1,2.86,1.42,11.56,11.56,0,0,1,.19,2.43c0,.84,0,1.68.07,2.53.05,1.64.09,3.29.14,4.93a15.81,15.81,0,0,0-4.34.43c-.3-2.93-.34-5.9-.59-8.83A2.45,2.45,0,0,1,211.13,280.43Z"/><path class="cls-2" d="M313.8,120.73l1.17-.13.11,3.76a.49.49,0,0,0,.17.38.53.53,0,0,0,.41.14.56.56,0,0,0,.53-.57l-.11-3.83,1.44-.16a.56.56,0,0,0,.49-.62.51.51,0,0,0-.58-.48l-1.38.15-.05-1.75a.6.6,0,0,0-.17-.38.66.66,0,0,0-.41-.14.55.55,0,0,0-.53.57l.05,1.82-1.23.14a.56.56,0,0,0-.5.61A.52.52,0,0,0,313.8,120.73Z"/><path class="cls-1" d="M346.71,258.69v-31h2l13.4,19.7,13.32-19.7h2.05v31h-4.2v-21L362.63,253.4h-1.09l-10.67-15.67v21Z"/><path class="cls-1" d="M383.67,230.08a2.8,2.8,0,0,1,2.94-2.81,2.86,2.86,0,1,1-2.94,2.81Zm4.88,28.61h-4V236.18h4Z"/><path class="cls-1" d="M392.74,254.32l2.9-2.22a6.49,6.49,0,0,0,5.59,3.57c2.39,0,4-1.39,4-3.11a3.21,3.21,0,0,0-2.06-2.86c-.46-.25-1.43-.67-2.81-1.26s-2.31-1-2.78-1.26a5.9,5.9,0,0,1-3.44-5.46,5.69,5.69,0,0,1,2-4.49,7.59,7.59,0,0,1,5.33-1.81,8.36,8.36,0,0,1,7.14,3.57l-2.56,2.44a5.64,5.64,0,0,0-4.83-2.61c-2,0-3.24,1.22-3.24,2.73a2.84,2.84,0,0,0,1.9,2.65l2.47,1.09a28,28,0,0,1,3,1.39c2.56,1.3,3.82,3.19,3.82,5.67a6.19,6.19,0,0,1-2.27,4.87,8.62,8.62,0,0,1-5.84,2A9.31,9.31,0,0,1,392.74,254.32Z"/><path class="cls-1" d="M413,230.08a2.8,2.8,0,0,1,2.94-2.81,2.86,2.86,0,1,1-2.94,2.81Zm4.87,28.61h-4V236.18h4Z"/><path class="cls-1" d="M417.78,267.39l.79-3.36a8.64,8.64,0,0,0,2.73.58c2.57,0,3.87-1.55,3.87-4.62V236.18h4v23.56c0,5.55-2.86,8.57-7.43,8.57A7.46,7.46,0,0,1,417.78,267.39Zm6.51-37.31a2.8,2.8,0,0,1,2.94-2.81,2.86,2.86,0,1,1-2.94,2.81Z"/><path class="cls-1" d="M437.39,255.83a11.67,11.67,0,0,1-3.32-8.44,11.55,11.55,0,0,1,11.85-11.8,11.21,11.21,0,0,1,8.44,3.44,11.59,11.59,0,0,1,3.36,8.36,11.71,11.71,0,0,1-3.36,8.44,11.33,11.33,0,0,1-8.44,3.41A11.46,11.46,0,0,1,437.39,255.83Zm14-14.11a7.53,7.53,0,0,0-11,0,7.82,7.82,0,0,0-2.26,5.67,8.11,8.11,0,0,0,2.26,5.76,7.53,7.53,0,0,0,11,0,8.12,8.12,0,0,0,2.27-5.76A7.82,7.82,0,0,0,451.42,241.72Z"/><path class="cls-1" d="M462.55,258.69V236.18h3.95v3.19c1.42-2.52,3.82-3.78,7.14-3.78A8.83,8.83,0,0,1,480,238c1.72,1.64,2.56,3.95,2.56,7v13.65h-4V246.17c0-4.37-2.35-6.84-5.75-6.84a5.81,5.81,0,0,0-4.5,1.93,7.28,7.28,0,0,0-1.72,5v12.47Z"/><path class="cls-1" d="M502.49,255.25h13.19v3.44H497v-2.56l12.85-16.47H497.79v-3.44H515.3v2.35Zm-3.36-29.62h4.28l3,3.78,3-3.78h4.33l-5.88,6.89H505Z"/><path class="cls-1" d="M519.92,249.62V236.18h4v13.31c0,3.7,2.1,6,5.63,6s5.67-2.31,5.67-6V236.18h4v13.44c0,6-3.65,9.62-9.66,9.62S519.92,255.5,519.92,249.62Z"/><path class="cls-1" d="M565.28,239.07a12.46,12.46,0,0,1,0,16.76,10.62,10.62,0,0,1-8.06,3.41,9.7,9.7,0,0,1-8-3.83V268h-4V236.18h4v3.4a9.79,9.79,0,0,1,8-4A10.48,10.48,0,0,1,565.28,239.07Zm-2.94,2.61a7.81,7.81,0,0,0-11.17,0,8.3,8.3,0,0,0-2.1,5.71,8.41,8.41,0,0,0,2.1,5.8,7.81,7.81,0,0,0,11.17,0,8.25,8.25,0,0,0,2.14-5.8A8.08,8.08,0,0,0,562.34,241.68Z"/><path class="cls-1" d="M573.34,258.69V236.18h3.95v3.19c1.43-2.52,3.82-3.78,7.14-3.78a8.87,8.87,0,0,1,6.35,2.43c1.72,1.64,2.56,3.95,2.56,7v13.65h-4V246.17c0-4.37-2.36-6.84-5.76-6.84a5.79,5.79,0,0,0-4.49,1.93,7.23,7.23,0,0,0-1.72,5v12.47Z"/><path class="cls-1" d="M598.46,230.08a2.8,2.8,0,0,1,2.94-2.81,2.86,2.86,0,1,1-2.94,2.81Zm4.87,28.61h-4V236.18h4Z"/><path class="cls-1" d="M603.2,267.39,604,264a8.64,8.64,0,0,0,2.73.58c2.56,0,3.87-1.55,3.87-4.62V236.18h4v23.56c0,5.55-2.86,8.57-7.44,8.57A7.51,7.51,0,0,1,603.2,267.39Zm6.51-37.31a2.8,2.8,0,0,1,2.95-2.81,2.86,2.86,0,1,1-2.95,2.81Z"/><path class="cls-1" d="M634.58,254.62a15.68,15.68,0,0,1-4.5-11.43,15.24,15.24,0,0,1,4.71-11.51,15.71,15.71,0,0,1,11.43-4.58,17.08,17.08,0,0,1,12.93,5.71l-3,2.74a12.77,12.77,0,0,0-9.91-4.37,12.15,12.15,0,0,0-8.49,20.58,11.46,11.46,0,0,0,8.36,3.36,14.06,14.06,0,0,0,10-4.37v-6.17H645.71v-3.87H660V252.6A17.91,17.91,0,0,1,646,259.15,15.41,15.41,0,0,1,634.58,254.62Z"/><path class="cls-1" d="M667.3,255.83a11.67,11.67,0,0,1-3.32-8.44,11.55,11.55,0,0,1,11.84-11.8,11.22,11.22,0,0,1,8.45,3.44,11.63,11.63,0,0,1,3.36,8.36,11.75,11.75,0,0,1-3.36,8.44,12.26,12.26,0,0,1-17,0Zm14-14.11a7.53,7.53,0,0,0-11,0,7.82,7.82,0,0,0-2.27,5.67,8.12,8.12,0,0,0,2.27,5.76,7.53,7.53,0,0,0,11,0,8.12,8.12,0,0,0,2.27-5.76A7.82,7.82,0,0,0,681.33,241.72Z"/><path class="cls-1" d="M695.61,255.25H708.8v3.44H690.14v-2.56L703,239.66H690.9v-3.44h17.52v2.35Z"/><path class="cls-1" d="M730.64,226.89h4v31.8h-4v-3.15a9.49,9.49,0,0,1-7.82,3.7,10.77,10.77,0,0,1-8.15-3.41,11.94,11.94,0,0,1-3.19-8.44,11.66,11.66,0,0,1,3.19-8.32,10.53,10.53,0,0,1,8.07-3.44,9.65,9.65,0,0,1,7.9,3.82Zm-1.85,14.79a7.08,7.08,0,0,0-5.55-2.35,7.18,7.18,0,0,0-5.58,2.35,8.3,8.3,0,0,0-2.1,5.71,8.41,8.41,0,0,0,2.1,5.8,7.22,7.22,0,0,0,5.58,2.35,7.11,7.11,0,0,0,5.55-2.35,8.25,8.25,0,0,0,2.14-5.8A8.15,8.15,0,0,0,728.79,241.68Z"/><path class="cls-1" d="M345.07,275.08a2.8,2.8,0,0,1,2.95-2.81,2.86,2.86,0,1,1-2.95,2.81ZM350,303.69h-4V281.18h4Z"/><path class="cls-1" d="M356.2,303.69V281.18h3.95v3.19c1.43-2.52,3.83-3.78,7.14-3.78a8.84,8.84,0,0,1,6.35,2.43c1.72,1.64,2.56,4,2.56,7v13.65h-4V291.17c0-4.37-2.35-6.84-5.76-6.84a5.8,5.8,0,0,0-4.49,1.93,7.28,7.28,0,0,0-1.72,5v12.47Z"/><path class="cls-1" d="M393.33,303.69v-31h2l13.4,19.7,13.32-19.7h2.05v31h-4.2v-21L409.25,298.4h-1.09l-10.67-15.67v21Z"/><path class="cls-1" d="M451.72,294.07H433.78c.67,3.82,3.19,6.43,7.9,6.43a14.23,14.23,0,0,0,7.85-2.52l1.72,3.06a16.59,16.59,0,0,1-9.66,3.16c-8.48,0-12-6-12-11.85a11.71,11.71,0,0,1,3.15-8.4,10.87,10.87,0,0,1,8.23-3.32,10.45,10.45,0,0,1,7.82,3.07,11.24,11.24,0,0,1,3.06,8.31C451.84,292.31,451.8,293,451.72,294.07Zm-4-3.49A6.45,6.45,0,0,0,441,284.2a7.31,7.31,0,0,0-7.18,6.38Z"/><path class="cls-1" d="M471.25,303.69l-8.49-10.5-2.14,1.93v8.57h-4v-31.8h4v18.4l10.08-9.11h5.46l-10.54,9.45,10.92,13.06Z"/><path class="cls-1" d="M478.63,275.08a2.8,2.8,0,0,1,2.94-2.81,2.86,2.86,0,1,1-2.94,2.81Zm4.88,28.61h-4V281.18h4Z"/><path class="cls-1" d="M489.76,303.69V281.18h3.95v3.19c1.43-2.52,3.83-3.78,7.14-3.78A8.86,8.86,0,0,1,507.2,283c1.72,1.64,2.56,4,2.56,7v13.65h-4V291.17c0-4.37-2.35-6.84-5.76-6.84a5.8,5.8,0,0,0-4.49,1.93,7.28,7.28,0,0,0-1.72,5v12.47Z"/><path class="cls-1" d="M509.34,312.39l.79-3.36a8.64,8.64,0,0,0,2.73.58c2.57,0,3.87-1.55,3.87-4.62V281.18h4v23.56c0,5.55-2.85,8.57-7.43,8.57A7.46,7.46,0,0,1,509.34,312.39Zm6.51-37.31a2.8,2.8,0,0,1,2.94-2.81,2.86,2.86,0,1,1-2.94,2.81Z"/><path class="cls-1" d="M547.81,294.07H529.87c.68,3.82,3.2,6.43,7.9,6.43a14.23,14.23,0,0,0,7.86-2.52l1.72,3.06a16.62,16.62,0,0,1-9.66,3.16c-8.49,0-12-6-12-11.85a11.71,11.71,0,0,1,3.15-8.4,10.9,10.9,0,0,1,8.24-3.32,10.43,10.43,0,0,1,7.81,3.07,11.2,11.2,0,0,1,3.07,8.31C547.94,292.31,547.9,293,547.81,294.07Zm-4-3.49a6.46,6.46,0,0,0-6.72-6.38,7.32,7.32,0,0,0-7.19,6.38Z"/><path class="cls-1" d="M568,299.83h13.36v3.86H562V300.2l10-10.67c3.36-3.48,5-5.62,5-8.31a5.29,5.29,0,0,0-5.62-5.25c-2.57,0-5.09,1.17-7.52,3.52l-2.31-3a13.86,13.86,0,0,1,9.91-4.41,9.64,9.64,0,0,1,6.93,2.56,8.87,8.87,0,0,1,2.69,6.77c0,2.73-1.43,5.67-4.33,8.86Z"/><path class="cls-1" d="M588.21,298.94a23.39,23.39,0,0,1,0-21.59,10.57,10.57,0,0,1,9.5-5.25c9,0,12.09,8.53,12.09,16s-3.1,16.05-12.09,16.05A10.56,10.56,0,0,1,588.21,298.94Zm15.42-19.49a6.82,6.82,0,0,0-11.85,0,20.66,20.66,0,0,0,0,17.44,6.86,6.86,0,0,0,11.85,0,20.66,20.66,0,0,0,0-17.44Z"/><path class="cls-1" d="M619.55,299.83H632.9v3.86H613.54V300.2l10-10.67c3.37-3.48,5-5.62,5-8.31a5.3,5.3,0,0,0-5.63-5.25c-2.56,0-5.08,1.17-7.52,3.52l-2.31-3a13.88,13.88,0,0,1,9.92-4.41,9.64,9.64,0,0,1,6.93,2.56,8.9,8.9,0,0,1,2.69,6.77c0,2.73-1.43,5.67-4.33,8.86Z"/><path class="cls-1" d="M657.6,292.22v3.66h-3.49v7.81h-4v-7.81H635.63l-.88-2.52,17-20.71h2.39v19.57Zm-17.31,0h9.79v-12Z"/><path class="cls-1" d="M358.81,94.8c-.92.41-1.88.73-2.82,1.1a156.65,156.65,0,0,1-27.1,7.68,182.81,182.81,0,0,1-29.65,3.17c-7.26.12-15,0-22.82-.28s-15.53-.83-22.75-1.46c17.07,1.8,34.79,2.71,52.27,1.53a194.4,194.4,0,0,0,25.81-3.42c2.09-.47,4.19-.84,6.25-1.4l6.14-1.64,6-1.92c2-.62,3.9-1.44,5.82-2.16-1.54.63-3.22,1.37-5.08,2.11l-6.11,2.18a173.33,173.33,0,0,1-32.61,6.91l0-.59a192.43,192.43,0,0,1-23.09,1.6c-3.82.09-7.61,0-11.4-.1s-7.56-.31-11.31-.6c-7.53-.49-15-1.24-22.56-1.94a218.64,218.64,0,0,0-22.61-1.2c1.05.26.38.55.13.79h0c-.22.22-.12.39,1.75.48-1.87-.09-2-.26-1.75-.48,7.39.26,14.77.88,22.19,1.49s14.85,1.19,22.28,1.55,14.88.59,22.4.48c3.75,0,7.53-.2,11.32-.37s7.61-.49,11.44-1a267.25,267.25,0,0,1-35.6,1.49c-11.8-.21-23.6-1-35.23-1.9s-23-1.69-34.08-1.2-21.67,2.23-31.21,6.21a46.73,46.73,0,0,0-6,2.88,25,25,0,0,0-8.48,4,24,24,0,0,0-6.09,6.79A4.6,4.6,0,0,0,152,124a10.82,10.82,0,0,1-2.6-1.36,2.44,2.44,0,0,1-.55-2.91c.5-1.41,1.81-3.5,4.81-5.88L152,112c-3.48,2.15-6.5,4.19-9.19,5.7s-4.91,2.53-6.67,2.57a3.16,3.16,0,0,1-2.08-.71,2.49,2.49,0,0,1-.68-.9,4.14,4.14,0,0,1-.29-1.37,10.27,10.27,0,0,1,.76-4.14,17,17,0,0,1,1.23-2.72c.26-.48.55-1,.86-1.51s.7-1,1.09-1.58A46.42,46.42,0,0,1,151.5,94.83,65.24,65.24,0,0,1,170,88c12.71-2.84,26-2.91,37.88-2.13,17.5,1.25,33.65,5.21,49.48,8.74A266.76,266.76,0,0,0,291.48,100a213.15,213.15,0,0,0,34.49.5c1-.08,2.13-.15,3.3-.28l3.66-.49c1.26-.18,2.57-.32,3.86-.54l3.82-.69c1.26-.24,2.5-.41,3.64-.68l3.25-.72c2-.44,3.63-.78,4.62-1.06,2.85-.74,3-.73,2.57-.53A164.24,164.24,0,0,1,315.21,102a226.88,226.88,0,0,1-48.39-3.65A209.52,209.52,0,0,0,315.21,102a158.42,158.42,0,0,0,39.09-6.35c-.44.2-.86.41-.07.23l2.2-.71,1.92-.63,1.71-.65c7.71-2.86,5.73-2.28,2-.58Z"/></g></svg>